<svg width="473" height="474" viewBox="0 0 473 474" fill="none" xmlns="http://www.w3.org/2000/svg">
<path d="M473.004 237.307C473.004 367.922 367.12 473.807 236.504 473.807C105.889 473.807 0.00439453 367.922 0.00439453 237.307C0.00439453 106.692 105.889 0.807129 236.504 0.807129C367.12 0.807129 473.004 106.692 473.004 237.307Z" fill="#FC2F00"/>
<g clip-path="url(#clip0_206_1129)">
<path d="M88.9512 151.876V322.738L236.563 408.169L384.058 322.738V151.876L236.563 66.4446L88.9512 151.876Z" fill="#EFE1D5"/>
<path d="M343.233 218.058H282.953L322.018 153.917H192.011C183.972 153.917 176.517 158.113 172.347 164.986L139.108 219.767H199.42L172.359 264.364L160.579 283.529L160.874 283.291L160.457 283.985H224.064L184.21 349.855L343.233 218.058Z" fill="#FC2F00"/>
</g>
<defs>
<clipPath id="clip0_206_1129">
<rect width="295.106" height="341.725" fill="white" transform="translate(88.9512 66.4446)"/>
</clipPath>
</defs>
</svg>
