<svg width="474" height="474" viewBox="0 0 474 474" fill="none" xmlns="http://www.w3.org/2000/svg">
<path d="M473.04 237.307C473.04 367.922 367.155 473.807 236.54 473.807C105.925 473.807 0.0400429 367.922 0.0400429 237.307C0.0400429 106.692 105.925 0.807129 236.54 0.807129C367.155 0.807129 473.04 106.692 473.04 237.307Z" fill="#EFE1D5"/>
<path fill-rule="evenodd" clip-rule="evenodd" d="M88.9869 322.738V151.876L236.599 66.4446L384.093 151.876V322.738L236.599 408.169L88.9869 322.738ZM282.988 218.058H343.268L184.246 349.855L224.099 283.985H160.493L160.909 283.291L160.615 283.529L172.395 264.364L199.455 219.767H139.143L172.383 164.986C176.553 158.113 184.008 153.917 192.046 153.917H322.053L282.988 218.058Z" fill="#FC2F00"/>
</svg>
